# xmcd CD database file
# Copyright (C) 1993-1996 Ti Kan
#
# Track frame offsets:
#	150
#	14862
#	30667
#	39797
#	56147
#	77202
#	88442
#	101327
#	123855
#	137052
#
# Disc length: 2054 seconds
#
# Revision: 1
# Processed by: cddbd v1.4b41PL1 Copyright (c) Steve Scherf et al.
# Submitted via: CDValet v3.01 - Copyright (c) 1997 Greg Leichner
#
DISCID=8208040a
DTITLE=Gary P. Nunn - Roadtrip
DYEAR=1900
DGENRE=
TTITLE0=Guadalupe Days
TTITLE1=Roadtrip
TTITLE2=Back Into The Swing Of Things
TTITLE3=If I Had A Mind To
TTITLE4=Terlingua Sky
TTITLE5=Brooksmith, Texas
TTITLE6=Siesta Sunday
TTITLE7=If Not Us Who, If Not Not Now When?
TTITLE8=Corona Con Lima
TTITLE9=San Antone Homesick
EXTD=
EXTT0=
EXTT1=
EXTT2=
EXTT3=
EXTT4=
EXTT5=
EXTT6=
EXTT7=
EXTT8=
EXTT9=
PLAYORDER=
